<svg width="25" height="24" viewBox="0 0 25 24" fill="none" xmlns="http://www.w3.org/2000/svg">
<path d="M23.5553 8.19188C23.5553 9.16751 23.4296 10.0173 23.2097 10.7726C22.9583 11.5279 22.6441 12.1888 22.2357 12.7868C21.8272 13.3533 21.3559 13.8569 20.8218 14.266C20.2876 14.6751 19.7535 15.0213 19.1565 15.2731C18.5909 15.5249 17.994 15.7137 17.397 15.8396C16.8 15.9655 16.2659 16.0284 15.7317 16.0284L24.4979 23.6132H17.994L9.2278 16.0284V11.8112H15.7946C16.3287 11.7797 16.8 11.6538 17.2399 11.465C17.6798 11.2761 18.0568 11.0558 18.371 10.7411C18.6852 10.4264 18.9366 10.0802 19.0937 9.6396C19.2508 9.19899 19.345 8.72691 19.345 8.16041V5.54822C19.345 5.29645 19.3136 5.13909 19.2508 5.0132C19.1879 4.88731 19.1251 4.79289 19.0308 4.72995C18.9366 4.66701 18.8423 4.63553 18.748 4.63553C18.6538 4.63553 18.5595 4.60406 18.4653 4.60406H4.57764V23.6132H0.398788V2.5269C0.398788 2.24366 0.461628 1.96041 0.555888 1.70863C0.650148 1.45685 0.807246 1.23655 0.995766 1.01624C1.18429 0.82741 1.40423 0.670051 1.65559 0.575634C1.90695 0.481218 2.18973 0.418274 2.50393 0.418274H18.4653C19.4079 0.418274 20.1934 0.575634 20.8532 0.921827C21.513 1.26802 22.0157 1.67716 22.4242 2.21218C22.8326 2.71574 23.1154 3.28223 23.3039 3.8802C23.4925 4.47817 23.5553 5.04467 23.5553 5.54822V8.19188Z" fill="#475762"/>
</svg>
