<svg width="28" height="24" viewBox="0 0 28 24" fill="none" xmlns="http://www.w3.org/2000/svg">
<path d="M27.5595 23.6132H23.3178V9.76548L15.8399 22.9208C15.6514 23.267 15.4 23.5188 15.0858 23.6761C14.7716 23.8335 14.3946 23.9279 14.0175 23.9279C13.6405 23.9279 13.2949 23.8335 12.9807 23.6761C12.6665 23.5188 12.4151 23.2355 12.2266 22.9208L4.74864 9.79696V23.6447H0.538361V2.18071C0.538361 1.70863 0.695468 1.26802 0.978247 0.890357C1.26103 0.512692 1.63806 0.260915 2.10936 0.135027C2.3293 0.0720828 2.54924 0.0720825 2.8006 0.0720825C3.02054 0.103555 3.24048 0.135027 3.46042 0.229443C3.68036 0.323859 3.86888 0.418276 4.02598 0.575637C4.18308 0.732997 4.34017 0.890357 4.46585 1.11066L14.0489 17.7909L23.632 1.11066C23.8834 0.701525 24.229 0.418275 24.6689 0.229443C25.1088 0.0720825 25.5486 0.0406107 26.0199 0.135027C26.4598 0.260915 26.8369 0.512692 27.1511 0.890357C27.4338 1.26802 27.5909 1.70863 27.5909 2.18071V23.6132H27.5595Z" fill="#475762"/>
</svg>
