<svg width="22" height="24" viewBox="0 0 22 24" fill="none" xmlns="http://www.w3.org/2000/svg">
<path d="M21.6858 23.6132H6.50997C5.913 23.6132 5.28458 23.5188 4.59335 23.2985C3.90211 23.0782 3.27372 22.7635 2.67674 22.2914C2.07976 21.8193 1.60845 21.2213 1.19999 20.466C0.791536 19.7107 0.603027 18.798 0.603027 17.6964V2.5269C0.603027 2.24366 0.665867 1.96041 0.760127 1.70863C0.854387 1.45685 1.01148 1.23655 1.19999 1.01624C1.38851 0.82741 1.60847 0.670051 1.85983 0.575634C2.11118 0.481218 2.39395 0.418274 2.70815 0.418274H21.6858V4.60406H4.84472V17.6964C4.84472 18.2315 5.00181 18.6721 5.28459 18.9553C5.56737 19.2386 6.00726 19.3959 6.57282 19.3959H21.6858V23.6132ZM13.5795 14.1401H3.33655V9.89137H13.5795V14.1401Z" fill="#475762"/>
</svg>
