<svg width="24" height="24" viewBox="0 0 24 24" fill="none" xmlns="http://www.w3.org/2000/svg">
<path d="M23.4864 10.1117C23.4864 11.0873 23.3607 11.9371 23.1408 12.6924C22.8894 13.4477 22.5752 14.1086 22.1668 14.7066C21.7583 15.2731 21.287 15.7767 20.7529 16.1858C20.2187 16.5949 19.6846 16.9411 19.0876 17.1929C18.5221 17.4447 17.9251 17.6335 17.3281 17.7594C16.7311 17.8853 16.197 17.9482 15.6628 17.9482H4.32024V13.731H15.6628C16.197 13.6995 16.6997 13.5736 17.1396 13.3848C17.5795 13.1959 17.9565 12.9756 18.2707 12.6609C18.5849 12.3462 18.8363 12 18.9934 11.5594C19.1505 11.1188 19.2447 10.6467 19.2447 10.1117V8.19187C19.1819 7.65685 19.0876 7.18477 18.8991 6.74416C18.742 6.30355 18.4906 5.92588 18.2079 5.61116C17.9251 5.29644 17.548 5.04466 17.1396 4.8873C16.7311 4.69847 16.2284 4.63553 15.6943 4.63553H6.20544C5.63988 4.63553 5.23142 4.79289 4.91722 5.07614C4.63444 5.35939 4.47734 5.79999 4.47734 6.33502V23.6447H0.267075V6.33502C0.267075 5.26497 0.455592 4.35228 0.864051 3.59695C1.27251 2.84162 1.74381 2.24365 2.34079 1.77157C2.93777 1.29948 3.56616 0.984763 4.2574 0.764459C4.94864 0.544154 5.57704 0.449738 6.17402 0.449738H15.6943C16.6369 0.449738 17.4852 0.575626 18.2393 0.827403C18.9934 1.07918 19.6532 1.3939 20.2502 1.80304C20.8157 2.21217 21.3184 2.68426 21.7269 3.21928C22.1353 3.75431 22.481 4.28933 22.7323 4.8873C22.9837 5.4538 23.1722 6.05177 23.2979 6.64974C23.4236 7.24771 23.4864 7.78274 23.4864 8.31776V10.1117Z" fill="#475762"/>
</svg>
